# xmcd
#
# Track frame offsets:
#	150
#	27452
#	44185
#	68079
#	88391
#	110917
#	131680
#	151402
#	175922
#	227273
#	268030
#
# Disc length: 4440 seconds
#
# Revision: 0
# Processed by: cddbd v1.5.1PL2 Copyright (c) Steve Scherf et al.
# Submitted via: dBpowerAMP V4.0
#
DISCID=9f11560b
DTITLE=Dir. Linda Lee Hopkins - Gospel pour 100 voix
DYEAR=2004
DGENRE=Gospel
TTITLE0=Let's teh Sunshine
TTITLE1=When the Saints
TTITLE2=I love the Lord
TTITLE3=Stand by Me
TTITLE4=I Believe
TTITLE5=Man y Rivers to Cross
TTITLE6=Praise Him
TTITLE7=Precious Lord
TTITLE8=His Eyes on the Sparrow
TTITLE9=Nevers Drive
TTITLE10=DATA
EXTD=
EXTT0=
EXTT1=
EXTT2=
EXTT3=
EXTT4=
EXTT5=
EXTT6=
EXTT7=
EXTT8=
EXTT9=
EXTT10=
PLAYORDER=
